<svg width="30px" height="30px" viewBox="0 0 30 30" version="1.1" xmlns="http://www.w3.org/2000/svg" xmlns:xlink="http://www.w3.org/1999/xlink">
<g id="Page-1" stroke="none" stroke-width="1" fill="none" fill-rule="evenodd">
<g id="Mean" transform="translate(-32.000000, -481.000000)">
<g id="01-Glyphs/Social-Media-/-Youtube" opacity="0.8" transform="translate(32.000000, 481.000000)" fill="#D8D8D8">
<path d="M15,0 C23.2842712,0 30,6.71572875 30,15 C30,23.2842712 23.2842712,30 15,30 C6.71572875,30 0,23.2842712 0,15 C0,6.71572875 6.71572875,0 15,0 Z M14.6883599,9.00091734 C13.7704627,9.00519827 10.9871566,9.02945688 8.91772177,9.16692233 L8.91772177,9.16692233 L8.69884576,9.18208821 L8.6230869,9.19019057 C8.27209278,9.22501268 7.63422503,9.26863678 7.03321448,9.81042745 L7.03321448,9.81042745 L6.89532136,9.944522 L6.79798869,10.0550625 C6.36339986,10.6047182 6.20059438,11.5963563 6.1818704,11.7186646 L6.1818704,11.7186646 L6.18000881,11.7311469 L6.17616215,11.7632319 C6.15130682,11.9739391 6.01401071,13.1902934 6.00099125,14.4545102 L6.00099125,14.4545102 L6,16.0099819 C6,17.339921 6.15006406,18.6698747 6.17616215,18.8911148 L6.17616215,18.8911148 L6.18000881,18.9231994 L6.1818704,18.9356819 C6.20067797,19.0585379 6.36485635,20.0585151 6.80382534,20.6066362 L6.80382534,20.6066362 L6.89532136,20.7098419 L7.03491662,20.8436155 C7.65040154,21.3827192 8.39141486,21.4082353 8.7935076,21.4652675 L8.7935076,21.4652675 L8.88007049,21.4792364 L9.01982377,21.4915395 C10.5517709,21.6159827 14.7356567,21.6575372 14.9880564,21.6599436 L14.9880564,21.6599436 L15,21.6600558 L15.009145,21.6600379 C15.2090416,21.6595998 18.6431516,21.6497665 21.0822584,21.4874714 L21.0822584,21.4874714 L21.3011366,21.4722933 L21.3768926,21.4641879 C21.7278914,21.4293543 22.3659704,21.3857417 22.9668135,20.8439395 L22.9668135,20.8439395 L23.104661,20.7098419 L23.2095805,20.5896298 C23.6096175,20.075245 23.7767858,19.187461 23.8126111,18.9715542 L23.8126111,18.9715542 L23.8202203,18.9231994 L23.8240617,18.8911148 C23.8488829,18.68041 23.9859909,17.4640691 23.9989925,16.1998536 L23.9989925,16.1998536 L23.9999824,16.0099819 L23.9999824,14.644382 L23.9986417,14.4229153 C23.9837135,13.1700907 23.8486761,11.9721832 23.8240617,11.7632319 L23.8240617,11.7632319 L23.8202203,11.7311469 L23.8183562,11.7186646 C23.7995246,11.5958103 23.6351526,10.5958469 23.1961595,10.0477275 L23.1961595,10.0477275 L23.104661,9.944522 L22.9668135,9.81042745 C22.3659704,9.26863678 21.7278914,9.22501268 21.3768926,9.19019057 L21.3768926,9.19019057 L21.3011366,9.18208821 L21.0242443,9.16310953 C18.9611937,9.02900659 16.2209921,9.00515839 15.3116289,9.00091734 L15.3116289,9.00091734 Z M13.1408782,12.6072955 L18.0045524,15.1448647 L13.1417064,17.6648118 L13.1408782,12.6072955 Z" id="Combined-Shape"></path>
</g>
</g>
</g>
</svg>
