<svg width="30px" height="30px" viewBox="0 0 30 30" version="1.1" xmlns="http://www.w3.org/2000/svg" xmlns:xlink="http://www.w3.org/1999/xlink">
    <g id="Page-1" stroke="none" stroke-width="1" fill="none" fill-rule="evenodd">
        <g id="Mean" transform="translate(-32.000000, -607.000000)">
            <g id="01-Glyphs/Social-Media-/-Mail" opacity="0.8" transform="translate(32.000000, 607.000000)" fill="#D8D8D8">
                <path d="M15,0 C23.2842712,0 30,6.71572875 30,15 C30,23.2842712 23.2842712,30 15,30 C6.71572875,30 0,23.2842712 0,15 C0,6.71572875 6.71572875,0 15,0 Z M22.875,8.25 L7.125,8.25 C6.504,8.25 6,8.754 6,9.375 L6,20.625 C6,21.246 6.504,21.75 7.125,21.75 L22.875,21.75 C23.496,21.75 24,21.246 24,20.625 L24,9.375 C24,8.754 23.496,8.25 22.875,8.25 Z M22.875,12.019875 L22.875,20.625 L7.125,20.625 L7.125,12.019875 L14.4375,16.2414375 C14.611875,16.342125 14.8059375,16.39275 15,16.39275 C15.1940625,16.39275 15.388125,16.342125 15.5625,16.2414375 L22.875,12.019875 Z M22.875,9.375 L22.875,10.7210625 L15,15.2671875 L7.125,10.7210625 L7.125,9.375 L22.875,9.375 Z" id="Combined-Shape"></path>
            </g>
        </g>
    </g>
</svg>
