<svg width="30px" height="30px" viewBox="0 0 30 30" version="1.1" xmlns="http://www.w3.org/2000/svg" xmlns:xlink="http://www.w3.org/1999/xlink">
    <g id="Page-1" stroke="none" stroke-width="1" fill="none" fill-rule="evenodd">
        <g id="Mean" transform="translate(-32.000000, -565.000000)">
            <g id="01-Glyphs/Social-Media-/-FB" opacity="0.8" transform="translate(32.000000, 565.000000)" fill="#D8D8D8">
                <path d="M15,0 C23.2842712,0 30,6.71572875 30,15 C30,23.2842712 23.2842712,30 15,30 C6.71572875,30 0,23.2842712 0,15 C0,6.71572875 6.71572875,0 15,0 Z M22.52375,7.5 L8.235,7.5 C7.745,7.5 7.5,8.08317568 7.5,8.55993243 L7.5,8.55993243 L7.5,22.4625 C7.5,22.9392568 7.745,23.25 8.235,23.25 L8.235,23.25 L15.8125,23.25 L15.8125,17.2905405 L13.625,17.2905405 L13.625,14.7364865 L15.8125,14.7364865 L15.8125,13.1742568 C15.8125,11.1565541 17.2125,10.0583108 19.05875,10.0583108 C19.946875,10.0583108 20.625,10.1221622 21.0625,10.1519595 L21.0625,10.1519595 L21.0625,12.1824324 L19.631875,12.1824324 C18.625625,12.1824324 18.4375,12.7272973 18.4375,13.4083784 L18.4375,13.4083784 L18.4375,14.7364865 L20.830625,14.7364865 L20.515625,17.2905405 L18.4375,17.2905405 L18.4375,23.25 L22.52375,23.25 C23.009375,23.25 23.25,22.9392568 23.25,22.4625 L23.25,22.4625 L23.25,8.55993243 C23.25,8.08317568 23.009375,7.5 22.52375,7.5 L22.52375,7.5 Z" id="Combined-Shape"></path>
            </g>
        </g>
    </g>
</svg>
