<svg width="30px" height="30px" viewBox="0 0 30 30" version="1.1" xmlns="http://www.w3.org/2000/svg" xmlns:xlink="http://www.w3.org/1999/xlink">
    <g id="Page-1" stroke="none" stroke-width="1" fill="none" fill-rule="evenodd">
        <g id="Mean" transform="translate(-32.000000, -523.000000)">
            <g id="01-Glyphs/Social-Media-/-IG" opacity="0.8" transform="translate(32.000000, 523.000000)" fill="#D8D8D8">
                <path d="M15,0 C23.2842712,0 30,6.71572875 30,15 C30,23.2842712 23.2842712,30 15,30 C6.71572875,30 0,23.2842712 0,15 C0,6.71572875 6.71572875,0 15,0 Z M15.9864976,6.00081969 L14.0135241,6.00081969 C12.4459759,6.00397928 12.1015733,6.0170988 11.2893115,6.05415994 C10.3313664,6.0978523 9.67712433,6.25000744 9.10465802,6.47250621 C8.51282845,6.70247161 8.01092011,7.01021155 7.51054797,7.51054797 C7.01021155,8.01092011 6.70247161,8.51282845 6.47250621,9.10465802 C6.25000744,9.67712433 6.0978523,10.3313664 6.05415994,11.2893115 C6.0170988,12.1015733 6.00397928,12.4459759 6.00081969,14.0135241 L6.00081969,15.9864976 C6.00397928,17.5540241 6.0170988,17.8984267 6.05415994,18.7106885 C6.0978523,19.6686336 6.25000744,20.3228757 6.47250621,20.895342 C6.70247161,21.4871715 7.01021155,21.9890799 7.51054797,22.489452 C8.01092011,22.9897884 8.51282845,23.2975284 9.10465802,23.5275295 C9.67712433,23.7499926 10.3313664,23.9021477 11.2893115,23.9458401 C12.2492572,23.9896396 12.5557468,24 15.0000179,24 C17.4442532,24 17.7507428,23.9896396 18.7106885,23.9458401 C19.6686336,23.9021477 20.3228757,23.7499926 20.895342,23.5275295 C21.4871715,23.2975284 21.9890799,22.9897884 22.489452,22.489452 C22.9897884,21.9890799 23.2975284,21.4871715 23.5275295,20.895342 C23.7499926,20.3228757 23.9021477,19.6686336 23.9458401,18.7106885 C23.9896396,17.7507428 24,17.4442532 24,15.0000179 C24,12.5557468 23.9896396,12.2492572 23.9458401,11.2893115 C23.9021477,10.3313664 23.7499926,9.67712433 23.5275295,9.10465802 C23.2975284,8.51282845 22.9897884,8.01092011 22.489452,7.51054797 C21.9890799,7.01021155 21.4871715,6.70247161 20.895342,6.47250621 C20.3228757,6.25000744 19.6686336,6.0978523 18.7106885,6.05415994 C17.8984267,6.0170988 17.5540241,6.00397928 15.9864976,6.00081969 Z M18.6367723,7.67409957 C19.5142634,7.71411219 19.9908066,7.86072987 20.3079424,7.98398304 C20.7280392,8.14724883 21.0278481,8.34227465 21.3427688,8.65723115 C21.6577254,8.97215193 21.8527512,9.2719608 22.016017,9.69205761 C22.1392701,10.0091934 22.2858878,10.4857366 22.3259004,11.3632277 C22.3657359,12.2363203 22.3766939,12.5471049 22.3781922,14.4625197 L22.3781922,15.5375081 C22.3766939,17.4528951 22.3657359,17.7636797 22.3259004,18.6367723 C22.2858878,19.5142634 22.1392701,19.9908066 22.016017,20.3079424 C21.8527512,20.7280392 21.6577254,21.0278481 21.3427688,21.3427688 C21.0278481,21.6577254 20.7280392,21.8527512 20.3079424,22.016017 C19.9908066,22.1392701 19.5142634,22.2858878 18.6367723,22.3259004 C17.7638112,22.3657359 17.4530673,22.3766939 15.5375469,22.3781922 L14.4624815,22.3781922 C12.546938,22.3766939 12.2362217,22.3657359 11.3632277,22.3259004 C10.4857366,22.2858878 10.0091934,22.1392701 9.69205761,22.016017 C9.2719608,21.8527512 8.97215193,21.6577254 8.65723115,21.3427688 C8.34231037,21.0278481 8.14724883,20.7280392 7.98398304,20.3079424 C7.86072987,19.9908066 7.71411219,19.5142634 7.67409957,18.6367723 C7.63426414,17.7636797 7.62330611,17.4528951 7.62180778,15.5375081 L7.62180778,14.4625197 C7.62330611,12.5471049 7.63426414,12.2363203 7.67409957,11.3632277 C7.71411219,10.4857366 7.86072987,10.0091934 7.98398304,9.69205761 C8.14724883,9.2719608 8.34227465,8.97215193 8.65723115,8.65723115 C8.97215193,8.34227465 9.2719608,8.14724883 9.69205761,7.98398304 C10.0091934,7.86072987 10.4857366,7.71411219 11.3632277,7.67409957 C12.2363203,7.63426414 12.5471049,7.62330611 14.4625197,7.62180778 L15.5375081,7.62180778 C17.4528951,7.62330611 17.7636797,7.63426414 18.6367723,7.67409957 Z M15.0000179,10.3783813 C12.447534,10.3783813 10.3783813,12.447534 10.3783813,15.0000179 C10.3783813,17.552466 12.447534,19.6216187 15.0000179,19.6216187 C17.552466,19.6216187 19.6216187,17.552466 19.6216187,15.0000179 C19.6216187,12.447534 17.552466,10.3783813 15.0000179,10.3783813 Z M15.0000179,12 C16.656862,12 18,13.343138 18,15.0000179 C18,16.656862 16.656862,18 15.0000179,18 C13.343138,18 12,16.656862 12,15.0000179 C12,13.343138 13.343138,12 15.0000179,12 Z M19.804212,9.11576867 C19.2077739,9.11576867 18.7242285,9.59931407 18.7242285,10.195788 C18.7242285,10.7922618 19.2077739,11.2757715 19.804212,11.2757715 C20.4006859,11.2757715 20.8842313,10.7922618 20.8842313,10.195788 C20.8842313,9.59931407 20.4006859,9.11576867 19.804212,9.11576867 Z" id="Combined-Shape"></path>
            </g>
        </g>
    </g>
</svg>
